<?xml version="1.0" encoding="utf-8"?>
<!-- Generator: Adobe Illustrator 25.2.1, SVG Export Plug-In . SVG Version: 6.00 Build 0)  -->
<svg version="1.1" id="Layer_1" xmlns="http://www.w3.org/2000/svg" xmlns:xlink="http://www.w3.org/1999/xlink" x="0px" y="0px"
	 viewBox="0 0 280 80.8" style="enable-background:new 0 0 280 80.8;" xml:space="preserve">
<g id="Layer_1_1_">
</g>
<g id="Lockups">
</g>
<g id="OL">
	<g>
		<g>
			<path d="M43.9,12.7c2.7-3.4,4.6-8,4.1-12.7c-4,0.2-8.9,2.6-11.7,6.1c-2.5,2.9-4.8,7.7-4.2,12.2C36.6,18.7,41,16,43.9,12.7"/>
			<path d="M47.9,19.1c-6.5-0.4-12.1,3.7-15.2,3.7c-3.1,0-7.9-3.5-13-3.4C13,19.5,6.7,23.3,3.3,29.4c-7,12.1-1.8,30,5,39.8
				c3.3,4.9,7.3,10.2,12.6,10c5-0.2,6.9-3.2,12.9-3.2c6,0,7.8,3.2,13,3.1c5.5-0.1,8.9-4.9,12.2-9.7c3.8-5.5,5.4-10.9,5.4-11.2
				c-0.1-0.1-10.5-4.1-10.6-16.1c-0.1-10,8.2-14.8,8.6-15.1C57.8,20.1,50.5,19.3,47.9,19.1"/>
		</g>
		<g>
			<path d="M74,42.1C74,18.9,87,4.4,107.4,4.4c16.6,0,29.1,10.2,31,25.4h-11.2c-2-9.4-9.8-15.5-19.7-15.5
				c-13.3,0-21.9,10.9-21.9,27.8c0,17.1,8.5,27.8,21.9,27.8c10.2,0,17.4-5.2,19.7-14h11.3c-2.8,15.1-14.2,23.9-31,23.9
				C86.9,79.8,74,65.4,74,42.1z"/>
			<path d="M143.7,63.5c0-9.3,7.1-15,19.8-15.7l14.6-0.9v-4.1c0-5.9-4-9.5-10.7-9.5c-6.3,0-10.3,3-11.2,7.8h-10.3
				c0.6-9.6,8.8-16.7,22-16.7c12.9,0,21.2,6.8,21.2,17.5v36.7h-10.5v-8.8h-0.3c-3.1,5.9-9.8,9.7-16.8,9.7
				C151,79.5,143.7,73.1,143.7,63.5z M178.1,58.7v-4.2L165,55.3c-6.5,0.5-10.2,3.3-10.2,7.9c0,4.7,3.8,7.7,9.7,7.7
				C172.1,70.9,178.1,65.6,178.1,58.7z"/>
			<path d="M199.6,25.4H210v9.1h0.3c1.8-6.2,6.5-9.9,12.8-9.9c1.6,0,2.9,0.3,3.7,0.4v10.2c-0.9-0.4-2.8-0.6-4.9-0.6
				c-7,0-11.4,4.7-11.4,12.3v31.9h-10.9V25.4z"/>
			<path d="M228.8,52c0-16.8,8.9-27.5,22.3-27.5c7.6,0,13.7,3.8,16.7,9.7h0.2V5.6h11v73.1h-10.6v-9.1h-0.2c-3.1,6.1-9.2,10-17,10
				C237.7,79.5,228.8,68.8,228.8,52z M240,52c0,11.2,5.4,18.3,14.1,18.3c8.4,0,14-7.1,14-18.3c0-11-5.6-18.3-14-18.3
				C245.4,33.7,240,40.8,240,52z"/>
		</g>
	</g>
</g>
</svg>
